<?xml version="1.0" standalone="no"?>
<!DOCTYPE svg PUBLIC "-//W3C//DTD SVG 20010904//EN"
 "http://www.w3.org/TR/2001/REC-SVG-20010904/DTD/svg10.dtd">
<svg version="1.0" xmlns="http://www.w3.org/2000/svg"
 width="40.000000pt" height="40.000000pt" viewBox="0 0 240.000000 240.000000"
 preserveAspectRatio="xMidYMid meet">
<metadata>
Created by potrace 1.16, written by Peter Selinger 2001-2019
</metadata>
<g transform="translate(0.000000,240.000000) scale(0.100000,-0.100000)"
fill="#000000" stroke="none">
<path d="M0 1200 l0 -1200 1200 0 1200 0 0 1200 0 1200 -1200 0 -1200 0 0
-1200z m1234 627 c9 -14 7 -21 -8 -32 -17 -13 -17 -19 -6 -64 15 -63 49 -115
77 -119 15 -2 38 11 68 39 58 54 70 75 54 95 -18 22 14 53 39 38 27 -17 27
-43 -1 -53 -20 -8 -26 -19 -32 -59 -9 -64 5 -92 45 -92 35 0 98 51 96 78 0 11
6 17 18 17 29 0 31 -24 3 -34 -25 -10 -68 -65 -101 -128 l-17 -33 -268 0 -268
0 -12 27 c-23 49 -83 124 -108 134 -29 11 -26 33 5 37 17 3 22 -2 22 -21 0
-27 32 -61 73 -76 23 -9 31 -7 47 9 31 31 23 129 -11 137 -23 6 -32 32 -18 49
25 30 69 1 51 -33 -8 -13 -3 -27 21 -61 38 -52 89 -82 115 -66 24 15 49 61 63
115 11 41 11 49 -4 64 -20 20 -21 27 -5 43 17 17 48 11 62 -11z m-277 -449
l53 -52 49 52 c42 47 52 53 82 50 l34 -3 3 -432 c1 -238 -1 -433 -5 -433 -5 0
-32 31 -61 69 l-52 68 0 264 0 264 -27 -28 -27 -27 -28 27 -28 27 0 -193 0
-193 -55 71 -55 71 0 225 0 225 32 0 c26 0 44 -11 85 -52z m383 -84 l0 -135
53 3 52 3 3 133 3 132 54 0 55 0 0 -225 0 -225 -55 -71 -55 -71 0 106 0 106
-55 0 -55 0 0 -176 0 -177 -52 -68 c-29 -38 -56 -69 -60 -69 -10 0 -11 854 -1
863 3 4 30 7 60 7 l53 0 0 -136z"/>
</g>
</svg>
